<svg xmlns="http://www.w3.org/2000/svg" width="1440" height="900" viewBox="0 0 1440 900">
  <defs>
    <linearGradient id="loginBg" x1="0" y1="0" x2="1" y2="1">
      <stop offset="0%" stop-color="#1c2430"/>
      <stop offset="45%" stop-color="#2a3342"/>
      <stop offset="100%" stop-color="#e11d2e"/>
    </linearGradient>
    <filter id="card" x="-30%" y="-30%" width="160%" height="160%">
      <feDropShadow dx="0" dy="18" stdDeviation="28" flood-color="#000" flood-opacity="0.28"/>
    </filter>
  </defs>
  <rect width="1440" height="900" fill="url(#loginBg)"/>
  <circle cx="220" cy="160" r="120" fill="#ffffff" fill-opacity="0.06"/>
  <circle cx="1280" cy="720" r="180" fill="#ffffff" fill-opacity="0.08"/>
  <rect x="500" y="180" width="440" height="540" rx="28" fill="rgba(255,255,255,0.92)" filter="url(#card)"/>
  <rect x="696" y="224" width="48" height="48" rx="14" fill="#e11d2e"/>
  <text x="720" y="254" text-anchor="middle" fill="#fff" font-family="Heebo, Arial, sans-serif" font-size="16" font-weight="700">ML</text>
  <text x="720" y="310" text-anchor="middle" fill="#1c2430" font-family="Heebo, Arial, sans-serif" font-size="28" font-weight="700">MILO</text>
  <text x="720" y="338" text-anchor="middle" fill="#5a6573" font-family="Heebo, Arial, sans-serif" font-size="13">Maintenance Intelligence &amp; Logistics Operations</text>
  <text x="720" y="364" text-anchor="middle" fill="#8491a1" font-family="Heebo, Arial, sans-serif" font-size="12">€‡Ÿ·‘ ∑ Optical Center</text>
  <text x="540" y="420" fill="#5a6573" font-family="Heebo, Arial, sans-serif" font-size="12">–ŸﬁŸŸ‹</text>
  <rect x="540" y="432" width="360" height="48" rx="12" fill="#f0f4f8" stroke="#d7e0ea"/>
  <text x="560" y="462" fill="#1c2430" font-family="Heebo, Arial, sans-serif" font-size="14">you@opticalcenter.co.il</text>
  <text x="540" y="520" fill="#5a6573" font-family="Heebo, Arial, sans-serif" font-size="12">·Ÿ·ﬁ‘</text>
  <rect x="540" y="532" width="360" height="48" rx="12" fill="#f0f4f8" stroke="#d7e0ea"/>
  <text x="560" y="562" fill="#1c2430" font-family="Heebo, Arial, sans-serif" font-size="14">""""""""</text>
  <rect x="540" y="612" width="360" height="52" rx="14" fill="#e11d2e"/>
  <text x="720" y="644" text-anchor="middle" fill="#fff" font-family="Heebo, Arial, sans-serif" font-size="15" font-weight="600">€‡Ÿ·‘ ‹ﬁ‚Ë€Í</text>
</svg>
